<svg xmlns="http://www.w3.org/2000/svg" xmlns:xlink="http://www.w3.org/1999/xlink" version="1.1" width="1000" height="1000" viewBox="0 0 1000 1000" xml:space="preserve">
<desc>Created with Fabric.js 3.5.0</desc>
<defs>
</defs>
<rect x="0" y="0" width="100%" height="100%" fill="rgba(255,255,255,0)"/>
<g transform="matrix(4.5119 0 0 4.5119 492.0466 500.0731)" id="25735">
<g style="" vector-effect="non-scaling-stroke">
		<g transform="matrix(1.1662 0 0 1.1662 -34.4962 57.7568)" id="SvgjsG1205">
<path style="stroke: none; stroke-width: 1; stroke-dasharray: none; stroke-linecap: butt; stroke-dashoffset: 0; stroke-linejoin: miter; stroke-miterlimit: 4; is-custom-font: none; font-file-url: none; fill: rgb(23,105,106); fill-rule: nonzero; opacity: 1;" transform=" translate(-63.433, -144.0652)" d="M 17.914 148.907 z M 22.657 154.94 a 90.586 90.586 0 0 0 5.861 6.251 c 6.914 6.805 15.159 12.525 24.004 16.851 c 3.259 1.526 6.265 3.107 9.787 4.468 c 0.88 0.338 1.779 0.7 2.724 1.026 c 0.953 0.302 1.941 0.604 2.974 0.903 c 1.027 0.321 2.122 0.549 3.267 0.786 c 1.146 0.23 2.336 0.493 3.614 0.624 a 91.24 91.24 0 0 1 -18.434 -5.99 a 93.833 93.833 0 0 1 -16.873 -9.842 c -10.548 -7.727 -19.57 -17.648 -26.16 -28.989 c -0.272 -0.339 -0.685 -0.985 -1.18 -1.808 l -0.796 -1.348 l -0.803 -1.551 c -0.534 -1.076 -1.149 -2.168 -1.62 -3.226 a 71.281 71.281 0 0 0 -1.326 -2.748 c 2.048 5.101 4.412 9.563 7.059 13.806 a 93.473 93.473 0 0 0 3.869 5.697 c -0.192 -0.259 -0.392 -0.511 -0.583 -0.771 a 95.012 95.012 0 0 0 4.6 5.841 l 0.016 0.02 z M 18.039 149.078 l -0.125 -0.17 l 0.125 0.17 z M 1.335 106.042 l -0.483 -3.875 c 0.256 2.365 0.553 5.008 1.096 7.654 l -0.327 -1.879 a 23.961 23.961 0 0 1 -0.286 -1.9 z M 85.812 185.575 c 6.652 0.673 13.628 0.472 20.461 -0.609 c 6.837 -1.077 13.524 -2.987 19.741 -5.449 c -11.45 4.503 -23.602 6.506 -35.49 6.171 c -1.591 -0.025 -3.159 0 -4.712 -0.113 z" stroke-linecap="round"/>
</g>
		<g transform="matrix(1.1662 0 0 1.1662 20.8292 40.6779)" id="SvgjsG1205">
<path style="stroke: none; stroke-width: 1; stroke-dasharray: none; stroke-linecap: butt; stroke-dashoffset: 0; stroke-linejoin: miter; stroke-miterlimit: 4; is-custom-font: none; font-file-url: none; fill: rgb(23,105,106); fill-rule: nonzero; opacity: 1;" transform=" translate(-110.8741, -129.42)" d="M 46.426 171.967 l -0.259 -0.165 c 0.087 0.055 0.172 0.111 0.259 0.165 z M 46.167 171.802 z M 43.653 170.135 z M 56.077 177.284 A 83.837 83.837 0 0 0 73.2 183.1 c -9.688 -2.21 -18.805 -6.109 -26.774 -11.133 c 3.06 1.947 6.277 3.749 9.651 5.317 z M 177.002 107.094 c 0.098 -1.58 0.296 -3.238 0.346 -4.027 c 0.594 -5.071 0.77 -9.401 0.745 -13.745 c -0.11 -0.783 -0.425 -2.25 -0.55 -3.918 c -0.153 -1.672 -0.378 -3.309 -0.568 -4.924 c -0.289 -1.601 -0.538 -3.186 -0.854 -4.74 c 2.275 11.617 2.237 23.279 0.144 34.282 a 94.97 94.97 0 0 1 0.737 -2.928 z" stroke-linecap="round"/>
</g>
		<g transform="matrix(1.1662 0 0 1.1662 0.0009 0.0009)" id="SvgjsG1205">
<path style="stroke: none; stroke-width: 1; stroke-dasharray: none; stroke-linecap: butt; stroke-dashoffset: 0; stroke-linejoin: miter; stroke-miterlimit: 4; is-custom-font: none; font-file-url: none; fill: rgb(23,105,106); fill-rule: nonzero; opacity: 1;" transform=" translate(-93.0138, -94.5394)" d="M 0.887 83.482 c 0.848 -6.9 2.653 -13.626 4.37 -18.107 l -0.695 3.28 c 0.429 -0.961 1.122 -3.194 2.067 -5.557 l 0.682 -1.802 l 0.753 -1.747 c 0.5 -1.131 0.92 -2.203 1.363 -3.025 c -0.303 0.771 -0.595 1.602 -0.947 2.436 c -0.345 0.837 -0.732 1.687 -1.101 2.542 l 1.514 -3.409 A 111.863 111.863 0 0 0 4.954 69.8 c -1.133 4.352 -2.029 8.926 -2.511 13.032 c -0.14 1.024 -0.189 2.024 -0.28 2.978 c -0.067 0.954 -0.183 1.864 -0.192 2.724 c -0.042 1.719 -0.1 3.224 -0.071 4.428 c 0.105 2.409 0.25 3.61 0.459 2.939 c 0.411 -1.333 0.403 -8.188 1.837 -16.767 c 0.767 -4.276 1.868 -8.966 3.362 -13.561 c 1.483 -4.599 3.427 -9.058 5.44 -12.992 l -0.592 1.292 l -0.545 1.331 l -1.116 2.691 l -1.024 2.78 l -0.521 1.402 c -0.153 0.476 -0.308 0.954 -0.461 1.434 c -1.32 3.807 -2.307 7.816 -3.167 11.857 l -0.559 3.052 c -0.205 1.014 -0.292 2.046 -0.444 3.067 c -0.318 2.041 -0.434 4.097 -0.611 6.129 c -0.199 4.074 -0.239 8.098 0.13 11.946 c -0.015 -0.914 -0.03 -1.726 -0.017 -2.512 l 0.115 -2.355 c 0.048 -0.809 0.039 -1.667 0.115 -2.65 c 0.07 -0.983 0.134 -2.091 0.19 -3.402 c 0.391 -6.608 1.572 -13.15 3.408 -19.481 c 1.75 -6.358 3.814 -11.957 6.889 -17.03 l 0.801 -1.526 c 0.542 -1.024 0.993 -2.034 1.566 -3.064 c 0.653 -1.13 1.278 -1.976 1.784 -2.751 c 0.521 -0.767 0.963 -1.441 1.469 -2.095 l 3.682 -5.082 c 0.075 -0.009 -0.022 0.185 -0.2 0.473 a 28.962 28.962 0 0 1 1.959 -2.49 c 0.755 -0.875 1.488 -1.803 2.109 -2.569 c 0.146 -0.007 0.288 -0.011 0.623 -0.251 c 8.65 -9.197 19.295 -16.692 31.291 -21.417 l 2.667 -1.039 l 2.7 -0.899 l 1.343 -0.448 l 1.36 -0.38 l 2.71 -0.753 c 1.55 -0.373 3.12 -0.751 4.721 -1.091 l 2.437 -0.426 c 0.819 -0.141 1.642 -0.3 2.484 -0.378 c 1.674 -0.201 3.134 -0.625 3.921 -0.729 c 4.369 -0.249 8.73 -0.199 13.849 0.216 c 0.397 0.007 1.015 0.043 1.732 0.082 c 0.717 0.041 1.537 0.061 2.332 0.134 c 0.932 0.21 1.927 0.418 2.971 0.621 c 6.369 0.988 12.527 2.754 18.386 5.103 l -0.007 -0.028 l 2.244 0.894 l 2.29 1.058 c 1.571 0.684 3.11 1.559 4.7 2.383 c 0.798 0.407 1.554 0.904 2.338 1.354 c 0.77 0.474 1.576 0.894 2.32 1.412 c 1.508 1.002 3.037 1.961 4.446 3.032 a 99.912 99.912 0 0 1 6.6 5.198 c 0.046 0.042 0.094 0.081 0.14 0.122 l 0.042 0.038 l 1.457 1.322 l 1.394 1.391 l 1.395 1.392 c 0.462 0.467 0.89 0.967 1.337 1.449 c -0.216 -0.35 -0.208 -0.491 -0.2 -0.63 c -0.689 -0.66 -1.504 -1.441 -2.309 -2.21 c 1.343 1.222 2.515 2.327 3.477 3.229 c 0.371 0.474 0.776 0.94 1.16 1.449 l 1.186 1.566 l 1.261 1.629 l 1.255 1.752 c 2.226 2.838 4.191 5.874 6.057 8.97 c 0.864 1.588 1.817 3.131 2.586 4.774 l 1.213 2.436 l 1.092 2.497 c 0.314 0.533 0.192 0.022 0.231 -0.068 c 1.225 2.962 2.21 6.042 3.102 9.146 a 88.212 88.212 0 0 1 3.408 17.211 c 0.225 1.378 0.321 2.772 0.52 4.153 l -0.123 2.924 c -0.001 1.103 0.057 2.206 0.01 3.311 l -0.128 3.326 c -0.016 0.75 -0.124 1.569 -0.187 2.459 c -0.084 0.888 -0.128 1.846 -0.256 2.856 l -0.412 3.192 c -0.132 1.119 -0.387 2.269 -0.583 3.471 a 90.635 90.635 0 0 1 -4.312 15.482 c -0.242 0.826 -0.427 1.486 -0.592 1.855 c -0.627 1.501 -1.296 2.954 -1.942 4.385 c -0.723 1.394 -1.386 2.788 -2.127 4.108 a 86.09 86.09 0 0 1 -7.949 12.379 c -0.336 0.439 -0.649 0.885 -0.987 1.297 l -0.998 1.206 c -0.66 0.779 -1.25 1.558 -1.876 2.234 c -1.251 1.352 -2.301 2.606 -3.286 3.549 c -1.128 1.178 -1.027 1.233 -0.246 0.665 a 35.07 35.07 0 0 0 1.608 -1.262 l 2.122 -1.914 c 0.776 -0.677 1.519 -1.441 2.235 -2.161 c 0.708 -0.725 1.416 -1.386 1.962 -1.984 c 1.101 -1.191 1.824 -1.926 1.67 -1.599 c -1.777 3.345 -5.013 7.471 -9.743 12.035 c -2.413 2.227 -5.128 4.647 -8.339 6.98 c -1.566 1.221 -3.307 2.338 -5.082 3.558 c -1.834 1.123 -3.708 2.353 -5.757 3.445 c -4.484 2.442 3.365 -1.475 3.577 -1.512 a 22.87 22.87 0 0 1 -2.377 1.64 c -1.478 0.786 -2.943 1.597 -4.474 2.273 c -0.895 0.411 -1.774 0.855 -2.679 1.239 l -2.729 1.122 l 1.444 -0.568 c 2.952 -1.173 5.711 -2.555 8.202 -3.922 c -0.936 0.566 -1.96 1.221 -3.082 1.812 c -1.203 0.622 -2.448 1.302 -3.697 1.909 l -3.625 1.686 c 12.968 -4.711 24.885 -12.507 34.319 -22.67 c 4.723 -5.066 8.935 -10.631 12.369 -16.651 a 93.904 93.904 0 0 0 8.288 -18.999 c -3.154 9.93 -8.071 19.052 -13.981 26.765 c 10.744 -14.507 17.15 -32.293 17.999 -50.636 c -0.001 1.011 -0.101 2.018 -0.168 3.025 c -0.083 1.007 -0.123 2.018 -0.241 3.022 c -0.257 2.005 -0.441 4.021 -0.827 6.009 c -0.624 4 -1.636 7.931 -2.782 11.815 c 2.262 -7.021 3.613 -14.424 4.145 -21.869 c 0.554 -7.451 0.092 -14.947 -1.057 -22.211 c 1.974 9.622 2.301 20.524 0.619 31.298 c 1.182 -6.949 1.482 -14.112 1.028 -21.214 c -0.102 -2.713 -0.422 -5.407 -0.685 -7.901 c -0.377 -2.476 -0.662 -4.762 -1.027 -6.611 c 1.445 6.826 2.015 12.648 2.293 18.136 c -0.267 -11.977 -2.748 -24.112 -7.62 -35.511 c 2.659 6.191 4.842 12.851 6.175 19.698 c 1.34 6.84 1.897 13.838 1.58 20.57 c -0.015 -0.788 0.018 -1.575 -0.028 -2.366 l -0.107 -2.391 c 0.287 10.85 -1.384 21.604 -4.696 31.717 c -1.662 5.056 -3.715 9.969 -6.2 14.644 a 95.521 95.521 0 0 1 -8.56 13.316 c 3.673 -4.29 7.551 -10.354 10.646 -17.015 c 3.081 -6.675 5.368 -13.894 6.941 -20.199 c -2.314 11.322 -6.907 22.494 -13.571 32.471 c -6.646 9.985 -15.351 18.764 -25.423 25.502 c -10.06 6.759 -21.474 11.437 -33.187 13.748 a 94.608 94.608 0 0 1 -17.657 1.809 a 94.462 94.462 0 0 1 -17.361 -1.515 l 3.005 0.571 c 1.002 0.19 2.018 0.295 3.026 0.445 c 2.016 0.324 4.055 0.446 6.087 0.633 c 4.073 0.229 8.168 0.306 12.25 -0.005 c 4.089 -0.217 8.152 -0.827 12.196 -1.572 c 2.006 -0.456 4.036 -0.829 6.017 -1.414 c 0.994 -0.278 2 -0.521 2.987 -0.83 l 2.955 -0.958 c -1.492 0.462 -3.062 1.074 -4.739 1.523 l -2.101 0.618 a 91.772 91.772 0 0 0 12.91 -4.496 a 89.46 89.46 0 0 0 5.651 -2.705 a 96.653 96.653 0 0 1 -10.714 4.872 a 98.407 98.407 0 0 1 -21.66 5.382 c -1.11 0.176 -2.122 0.231 -3.029 0.326 l -2.428 0.24 c -1.429 0.113 -2.484 0.164 -3.222 0.245 c -1.477 0.147 -1.687 0.284 -1.099 0.397 c 0.587 0.113 1.971 0.203 3.673 0.251 c 1.697 -0.01 3.71 -0.101 5.541 -0.268 c 18.397 -1.887 35.288 -9.107 48.824 -19.916 c 13.545 -10.811 23.919 -25.172 29.701 -41.467 c 0.363 -0.946 0.642 -1.922 0.944 -2.89 c 0.293 -0.971 0.617 -1.932 0.882 -2.912 c 0.491 -1.97 1.072 -3.917 1.448 -5.917 l 0.619 -2.985 l 0.487 -3.012 l 0.241 -1.507 l 0.172 -1.517 l 0.342 -3.034 c 0.698 -8.114 0.422 -16.315 -0.812 -24.363 c -0.66 -4.554 -1.82 -9.961 -3.315 -14.777 l -1.15 -3.484 c -0.4 -1.107 -0.825 -2.151 -1.203 -3.133 l -0.557 -1.415 l -0.571 -1.271 l -0.981 -2.124 c -3.134 -6.359 -7.072 -12.424 -11.682 -18.065 c -4.605 -5.643 -9.896 -10.868 -15.861 -15.418 l -2.244 -1.703 l -2.327 -1.608 l -1.166 -0.806 l -1.203 -0.756 l -2.417 -1.508 c -3.295 -1.904 -6.67 -3.739 -10.228 -5.261 c -3.521 -1.598 -7.206 -2.895 -10.957 -4.055 c -1.895 -0.52 -3.781 -1.1 -5.724 -1.499 c -0.968 -0.209 -1.928 -0.463 -2.907 -0.638 l -2.944 -0.521 C 100.363 0.01 93.04 -0.285 85.724 0.265 C 78.412 0.83 71.069 2.218 64.028 4.614 l -2.635 0.913 c -0.881 0.297 -1.73 0.682 -2.597 1.019 c -0.858 0.359 -1.735 0.673 -2.577 1.069 l -2.532 1.173 c -0.852 0.376 -1.675 0.808 -2.496 1.245 l -2.469 1.297 l -2.402 1.412 c -0.8 0.472 -1.606 0.933 -2.372 1.458 l -2.324 1.528 c -0.782 0.497 -1.506 1.078 -2.261 1.612 c -0.741 0.554 -1.51 1.07 -2.226 1.654 l -2.157 1.737 c -0.729 0.565 -1.417 1.178 -2.103 1.792 l -2.063 1.83 l -1.971 1.919 c -0.656 0.639 -1.319 1.271 -1.93 1.951 c -5.031 5.298 -9.451 11.078 -13.066 17.194 A 99.518 99.518 0 0 0 5.18 64.379 C 0.805 77.299 -0.45 90.402 0.134 102.237 c -0.126 -4.872 -0.147 -11.859 0.753 -18.755 z m 141.132 90.446 a 96.807 96.807 0 0 0 8.765 -6.389 c -2.84 2.339 -5.758 4.499 -8.765 6.389 z m 40.217 -54.282 c -0.299 0.901 -0.552 1.791 -0.882 2.641 l -0.957 2.523 l -0.466 1.248 l -0.513 1.231 a 108.54 108.54 0 0 0 -0.997 2.501 a 97.307 97.307 0 0 1 -6.587 13.35 c -2.521 4.275 -5.443 8.281 -8.565 12.04 c -1.542 1.899 -3.222 3.66 -4.874 5.421 l -2.581 2.523 c -0.847 0.848 -1.774 1.604 -2.652 2.404 c -0.736 0.64 -1.478 1.266 -2.225 1.882 a 90.696 90.696 0 0 0 7.896 -7.312 a 89.808 89.808 0 0 1 -11.689 10.188 c -1.036 0.722 -2.037 1.496 -3.113 2.176 l -3.247 2.069 l -3.43 1.949 c -1.167 0.648 -2.399 1.224 -3.634 1.855 a 74.206 74.206 0 0 1 2.685 -1.508 c 1.021 -0.567 2.092 -1.237 3.138 -1.85 c 1.054 -0.601 2.012 -1.261 2.808 -1.813 c 0.796 -0.552 1.42 -1.01 1.745 -1.306 c -0.464 0.315 -0.936 0.617 -1.406 0.924 a 92.477 92.477 0 0 0 1.507 -1.015 c -0.021 0.023 -0.065 0.059 -0.101 0.091 c 10.932 -7.466 20.245 -17.277 27.223 -28.462 c 7.009 -11.175 11.57 -23.781 13.46 -36.601 c -0.41 5.142 -1.352 9.248 -2.543 12.851 z m -6.654 -65.352 z m -8.448 -12.698 a 92.37 92.37 0 0 1 7.773 14.352 c 0.25 0.549 0.486 1.106 0.719 1.664 c 4.963 12.154 7.221 25.192 6.89 38.036 c 0.084 -4.25 -0.198 -8.498 -0.669 -12.71 c -0.533 -4.854 -1.518 -9.65 -2.824 -14.341 c -2.562 -9.407 -6.723 -18.323 -12.005 -26.451 c 0.485 0.67 0.996 1.396 1.525 2.166 a 32.826 32.826 0 0 1 1.59 2.463 l -0.638 -1.109 l -0.689 -1.079 l -1.378 -2.156 c -0.938 -1.424 -1.955 -2.796 -2.934 -4.192 c -1.062 -1.334 -2.069 -2.712 -3.174 -4.011 c -0.836 -0.953 -1.637 -1.938 -2.485 -2.879 c 2.992 3.155 5.801 6.54 8.299 10.247 z M 96.886 1.152 c 1.467 0.078 2.937 0.221 4.407 0.331 c 1.204 0.101 2.402 0.279 3.588 0.413 c 0.356 0.015 0.732 0.039 1.204 0.092 c 0.471 0.065 1.034 0.186 1.769 0.354 c 5.469 0.912 10.459 2.283 14.001 3.699 c 6.798 2.573 13.123 5.774 18.86 9.471 c 5.739 3.69 10.889 7.887 15.246 12.471 c 2.008 2.179 1.422 1.704 0.315 0.646 l 1.662 1.764 c -0.736 -0.734 -1.459 -1.478 -2.206 -2.196 l -2.301 -2.09 c 0.56 0.49 1.918 1.663 2.845 2.522 c -7.389 -7.539 -16.026 -13.799 -25.375 -18.404 c -9.356 -4.603 -19.431 -7.446 -29.502 -8.581 c 1.618 0.18 2.412 0.22 3.168 0.24 c -1.085 -0.127 -2.173 -0.301 -3.274 -0.401 c -1.479 -0.097 -2.955 -0.229 -4.423 -0.301 l -4.36 -0.103 c 1.444 -0.001 2.907 0.039 4.376 0.073 z" stroke-linecap="round"/>
</g>
		<g transform="matrix(1.1662 0 0 1.1662 11.7282 72.2978)" id="SvgjsG1205">
<path style="stroke: none; stroke-width: 1; stroke-dasharray: none; stroke-linecap: butt; stroke-dashoffset: 0; stroke-linejoin: miter; stroke-miterlimit: 4; is-custom-font: none; font-file-url: none; fill: rgb(23,105,106); fill-rule: nonzero; opacity: 1;" transform=" translate(-103.07, -156.534)" d="M 115.942 184.69 l 0.426 -0.125 c -0.446 0.12 -0.885 0.252 -1.334 0.366 c 0.304 -0.076 0.609 -0.15 0.908 -0.241 z M 160.424 146.151 c 4.235 -5.587 7.977 -12.263 10.366 -18.014 l -0.029 0.006 c -6.061 14.322 -15.892 26.66 -28.16 35.744 a 159.12 159.12 0 0 0 6.418 -4.703 c 2.698 -2.82 7.213 -7.406 11.405 -13.033 z M 35.35 162.846 c 7.172 6.412 15.821 11.992 25.448 15.751 c 3.754 1.413 7.585 2.651 11.503 3.523 c 1.944 0.502 3.929 0.812 5.899 1.181 c 0.987 0.175 1.987 0.272 2.979 0.412 c 0.994 0.129 1.986 0.275 2.987 0.333 c -4.519 -0.501 -9.005 -1.251 -13.372 -2.44 c -4.364 -1.185 -8.642 -2.65 -12.769 -4.449 a 97.4 97.4 0 0 1 -11.894 -6.314 c -3.786 -2.408 -7.376 -5.097 -10.781 -7.997 z M 123.877 174.277 l -2.219 0.871 l -2.266 0.756 c -1.5 0.54 -3.047 0.944 -4.59 1.373 c 1.551 -0.39 3.111 -0.754 4.624 -1.254 l 2.283 -0.698 l 2.23 -0.815 c -0.086 -0.044 -0.594 0.055 -0.062 -0.233 z M 97.683 179.965 c -1.16 0.099 -2.326 0.09 -3.494 0.102 c -1.168 0.014 -2.338 0.039 -3.509 -0.038 l 1.576 0.148 c 0.482 0.031 0.916 0.068 1.295 0.113 c 1.381 -0.118 2.752 -0.151 4.132 -0.325 z M 51.441 169.209 c 1.341 0.787 2.765 1.48 4.178 2.244 c 0.354 0.194 0.996 0.415 1.801 0.709 c -1.721 -0.739 -3.37 -1.655 -5.046 -2.505 c -0.83 -0.441 -1.629 -0.935 -2.443 -1.395 c -0.812 -0.464 -1.621 -0.927 -2.389 -1.445 l 0.937 0.626 l 0.977 0.584 l 1.985 1.182 z" stroke-linecap="round"/>
</g>
		<g transform="matrix(2.0207 0 0 2.0207 7.1394 -5.6736)" id="SvgjsG1206">
<path style="stroke: none; stroke-width: 1; stroke-dasharray: none; stroke-linecap: butt; stroke-dashoffset: 0; stroke-linejoin: miter; stroke-miterlimit: 4; is-custom-font: none; font-file-url: none; fill: rgb(23,105,106); fill-rule: nonzero; opacity: 1;" transform=" translate(-20.8603, -45.6453)" d="M 1.86 33.6 c -1.68 0.96 -1.92 -0.36 -0.18 -1.32 c 4.02 -2.22 10.2 -5.4 16.38 -7.5 c 1.74 -5.82 2.82 -8.82 3.06 -9.36 c 0.36 -0.96 1.62 -1.08 1.14 0.18 c -0.24 0.6 -1.38 4.02 -2.76 8.7 c 3.12 -0.96 6.18 -1.56 8.88 -1.56 c 8.58 0 13.32 1.8 13.32 6.84 c 0 5.88 -6.9 10.92 -13.68 14.28 c -2.94 1.5 -10.2 5.1 -15.78 7.86 l -1.2 4.68 l 18.06 -0.78 c 1.74 -0.06 2.16 1.44 0.72 1.5 c -0.96 0.06 -11.22 0.48 -19.14 0.72 c -1.74 6.96 -3.12 12.66 -3.42 14.22 c -0.54 2.52 -0.54 2.76 -0.18 2.58 s 0.6 0.12 -0.54 1.38 c -1.08 1.2 -1.68 0.54 -1.14 -1.62 l 4.14 -16.5 c -3.9 0.12 -7.32 0.24 -7.8 0.18 c -1.56 -0.06 -2.7 -1.44 -0.48 -2.4 c 1.14 -0.48 5.1 -2.46 10.08 -4.98 l 1.8 -7.5 c 1.68 -6.9 3.18 -12.42 4.38 -16.68 c -5.64 1.98 -11.58 4.8 -15.66 7.08 z M 14.28 43.260000000000005 l -1.62 6.72 l 13.98 -7.14 c 9.42 -4.74 14.04 -9.48 14.04 -13.56 c 0 -3.3 -4.86 -5.16 -12.3 -5.16 c -2.52 0 -5.88 0.78 -9.42 1.92 c -1.5 5.1 -3.24 11.34 -4.68 17.22 z M 9.9 56.46 l 1.02 -4.14 c -2.52 1.26 -4.62 2.22 -5.52 2.58 c -3.06 1.26 -3.42 1.74 -1.14 1.74 c 0.6 0 2.94 -0.06 5.64 -0.18 z" stroke-linecap="round"/>
</g>
</g>
</g>
</svg>